# xmcd CD database file generated by MAGIX-FreeDB-MP3_deluxe_17 v3.0beta1
#
# Track frame offsets:
#	182
#	19195
#	40337
#	61197
#	81437
#	96077
#	114100
#	127065
#	143210
#	161177
#	173765
#	194922
#	222045
#	245275
#	265027
#	279472
#	298950
#	322027
#
# Disc length: 4520
#
# Revision: 4
# Processed by: cddbd v1.5.2PL0 Copyright (c) Steve Scherf et al.
# Submitted via: MAGIX-FreeDB-MP3_deluxe_17 v3.0beta1
#
DISCID=1311a612
DTITLE=Celtica - Magie des Ballades Celtes
DYEAR=1999
DGENRE=Celtic
TTITLE0=Joannie Madden - Women Of Ireland
TTITLE1=Paul McCartney - Mull Of Kintyre
TTITLE2=Sinead O'Connor - Three Babies
TTITLE3=Loreena McKennit - Moon Cradle
TTITLE4=Vladimir Cosma - David's Song
TTITLE5=Dan Ar Braz - Language of the Gaels
TTITLE6=James Horner - Rose
TTITLE7=Celtic Spirit - Ailein Duinn (Thème de Rob Boy)
TTITLE8=Aoife Ni Fhearraigh - Ansacht Na Nansacht
TTITLE9=The London Symphony Orchestra - Thème de Braveheart
TTITLE10=La Lugh - Lough Erne Shore
TTITLE11=Celtus - Strange Day In The Country
TTITLE12=Clannad - From Your Heart
TTITLE13=Roger Hodgson - The Elements
TTITLE14=Gary Moore - Johnny Boy
TTITLE15=The Pogues - The Auld Triangle
TTITLE16=The Corrs - Little Wing
TTITLE17=Alan Stivell - Mna Na Heireann (Women of Ireland)
EXTD=YEAR: 1999
EXTT0=
EXTT1=
EXTT2=
EXTT3=
EXTT4=
EXTT5=
EXTT6=
EXTT7=
EXTT8=
EXTT9=
EXTT10=
EXTT11=
EXTT12=
EXTT13=
EXTT14=
EXTT15=
EXTT16=
EXTT17=
PLAYORDER=
